<?xml version="1.0" standalone="no"?><!DOCTYPE svg PUBLIC "-//W3C//DTD SVG 1.1//EN" "http://www.w3.org/Graphics/SVG/1.1/DTD/svg11.dtd"><svg t="1744335947490" class="icon" viewBox="0 0 1077 1024" version="1.1" xmlns="http://www.w3.org/2000/svg" p-id="8289" xmlns:xlink="http://www.w3.org/1999/xlink" width="18.931640625" height="18"><path d="M237.352421 32.606316h62.733474V32.336842h95.770947C445.062737 32.336842 485.052632 75.883789 485.052632 129.347368v237.029053C485.052632 419.893895 445.062737 463.494737 395.856842 463.494737H143.144421C93.938526 463.494737 53.894737 419.893895 53.894737 366.376421V129.455158C53.894737 75.937684 93.992421 32.336842 143.090526 32.336842h94.31579v0.269474zM107.789474 378.017684c0.053895 17.461895 12.611368 31.582316 28.079158 31.582316h267.317894c15.413895 0 27.971368-14.174316 27.971369-31.582316V117.813895c0-17.408-12.503579-31.582316-28.025263-31.582316H135.814737c-15.413895 0-27.971368 14.174316-27.971369 31.582316v260.203789H107.789474z m129.562947 193.482105h62.733474V571.284211h95.770947c49.205895 0 89.195789 43.493053 89.19579 97.010526v237.136842c0 53.463579-39.989895 97.010526-89.19579 97.010526H143.144421C93.938526 1002.442105 53.894737 958.895158 53.894737 905.431579v-237.136842c0-53.463579 40.097684-97.010526 89.195789-97.010526h94.31579v0.161684zM107.789474 916.911158c0.053895 17.408 12.611368 31.582316 28.079158 31.582316h267.317894c15.413895 0 27.971368-14.174316 27.971369-31.582316v-260.20379c0-17.408-12.503579-31.582316-28.025263-31.582315H135.814737c-15.413895 0-27.971368 14.174316-27.971369 31.582315v260.20379H107.789474z m668.510315-345.465263h62.733474V571.284211h95.770948c49.205895 0 89.195789 43.493053 89.195789 97.010526v237.136842c0 53.463579-39.989895 97.010526-89.195789 97.010526h-252.766316c-49.152 0-89.195789-43.546947-89.19579-97.010526v-237.136842c0-53.463579 40.043789-97.010526 89.19579-97.010526h94.315789v0.161684zM646.736842 916.911158c0.053895 17.408 12.611368 31.582316 28.079158 31.582316h267.264c15.467789 0 28.025263-14.174316 28.025263-31.582316v-260.20379c0-17.408-12.557474-31.582316-28.025263-31.582315H674.762105c-15.467789 0-28.025263 14.174316-28.025263 31.582315v260.20379H646.736842z m266.509474-810.684632l0.107789-0.161684-53.894737-53.894737c-28.240842-28.186947-76.045474-26.138947-106.711579 4.473263l-135.545263 135.653053c-30.612211 30.612211-32.660211 78.416842-4.473263 106.657684l144.653474 144.599579c28.133053 28.186947 75.991579 26.138947 106.657684-4.473263l135.599158-135.653053c30.666105-30.612211 32.606316-78.416842 4.473263-106.657684l-54.810947-54.757052-0.161684 0.107789-35.893895-35.893895z" fill="#00D7FF" p-id="8290"></path></svg>