<?xml version="1.0" standalone="no"?><!DOCTYPE svg PUBLIC "-//W3C//DTD SVG 1.1//EN" "http://www.w3.org/Graphics/SVG/1.1/DTD/svg11.dtd"><svg t="1744353206979" class="icon" viewBox="0 0 1024 1024" version="1.1" xmlns="http://www.w3.org/2000/svg" p-id="10625" xmlns:xlink="http://www.w3.org/1999/xlink" width="18" height="18"><path d="M828.017815 467.798907c-0.939121 2.967745-1.87415 5.782039-3.251118 8.531884l0.500251 0.278258-255.990281 511.984655-0.500251-0.278258c-10.5646 20.903116-31.689709 35.684554-56.748282 35.684554-35.314225 0-63.998338-28.684112-63.998338-64.031074L448.029795 640.01202 256.035805 640.01202c-35.313202 0-63.998338-28.684112-63.998338-64.031074 0-7.060799 1.749343-13.559967 3.99996-19.809521 1.000502-2.938078 1.99998-5.749303 3.373879-8.499148l-0.563677-0.315086L454.839957 35.37356l0.565723 0.314063c10.499128-20.938921 31.623213-35.687623 56.623475-35.687623 35.372537 0 64.057672 28.656491 64.057672 64.030051l0 319.957929 191.99399 0c35.313202 0 63.93798 28.655468 63.93798 63.997315C832.017775 455.081899 830.328789 461.550376 828.017815 467.798907z" fill="#8b5cf6" p-id="10626"></path></svg>