<?xml version="1.0" standalone="no"?><!DOCTYPE svg PUBLIC "-//W3C//DTD SVG 1.1//EN" "http://www.w3.org/Graphics/SVG/1.1/DTD/svg11.dtd"><svg t="1744272440739" class="icon" viewBox="0 0 4072 1024" version="1.1" xmlns="http://www.w3.org/2000/svg" p-id="3503" xmlns:xlink="http://www.w3.org/1999/xlink" width="71.578125" height="18"><path d="M2305.061816 127.929639h255.859277v768.140722h-255.859277z" p-id="3504"></path><path d="M2049.202539 384.070361h1279.296387v255.859278h-1279.296387z" p-id="3505"></path><path d="M2816.780371 127.929639h255.859277v768.140722h-255.859277z" p-id="3506"></path><path d="M4072.819149 511.769727l-180.918095-180.918095-0.358203 0.383789L3560.588876 0.281445l-180.918095 180.918095 330.953975 330.953976-330.953975 330.928389 180.918095 180.918095 330.953975-330.928389 0.230274 0.230273 180.918095-180.918095-0.230274-0.230273 0.358203-0.383789zM1588.655839 0.281445v767.577832h-383.788916v-383.788916 383.788916h-127.929639V0.281445l-255.859277 255.859278v511.718554l255.859277 255.859278h511.718555l255.859278-255.859278v-511.718554l-255.859278-255.859278zM0 511.769727l180.918095-180.918095 0.383789 0.383789L512.230273 0.281445l180.918095 180.918095-330.928389 330.953976 330.928389 330.928389-180.918095 180.918095L181.301884 693.071611l-0.230273 0.230273L0.153516 512.383789l0.204687-0.230273-0.358203-0.383789z" p-id="3507"></path></svg>